<?xml version="1.0" standalone="no"?>
<!DOCTYPE svg PUBLIC "-//W3C//DTD SVG 20010904//EN"
 "http://www.w3.org/TR/2001/REC-SVG-20010904/DTD/svg10.dtd">
<svg version="1.0" xmlns="http://www.w3.org/2000/svg"
 width="920.000000pt" height="335.000000pt" viewBox="0 0 920.000000 335.000000"
 preserveAspectRatio="xMidYMid meet">

<g transform="translate(0.000000,335.000000) scale(0.100000,-0.100000)"
fill="#000000" stroke="none">
<path d="M1385 2559 c-459 -15 -576 -36 -666 -117 -28 -25 -61 -66 -73 -91
-25 -47 -50 -168 -60 -278 -3 -35 -9 -91 -12 -125 -16 -168 -5 -561 22 -758
18 -135 36 -197 73 -247 107 -148 247 -168 1186 -168 461 0 700 6 830 20 22 3
63 7 90 10 121 14 215 66 272 150 26 38 59 156 73 260 6 44 13 202 17 350 9
409 -20 695 -81 800 -14 24 -47 62 -73 84 -79 68 -166 85 -533 106 -174 10
-820 13 -1065 4z m339 -573 c387 -221 523 -300 535 -311 11 -11 5 -18 -39 -42
-29 -15 -60 -32 -69 -38 -52 -33 -550 -315 -555 -315 -3 0 -6 173 -6 385 0
274 3 385 11 385 6 0 61 -29 123 -64z"/>
<path d="M7170 1700 l0 -800 100 0 99 0 10 38 c6 20 11 43 11 50 0 20 9 14 55
-32 110 -114 296 -95 363 36 46 90 54 146 59 430 9 474 -34 605 -201 616 -94
6 -140 -11 -203 -74 -30 -30 -56 -54 -59 -54 -2 0 -4 133 -4 295 l0 295 -115
0 -115 0 0 -800z m397 155 c36 -25 51 -99 58 -281 8 -202 -6 -407 -31 -460
-32 -66 -107 -77 -164 -24 l-30 28 0 316 c0 348 2 361 59 409 36 30 76 35 108
12z"/>
<path d="M3413 2423 c2 -10 14 -52 25 -93 30 -110 165 -602 212 -775 l42 -150
1 -252 0 -253 124 0 123 0 0 253 c0 201 3 263 16 307 9 30 24 84 34 120 31
110 230 824 236 843 5 16 -3 17 -118 15 l-123 -3 -47 -215 c-26 -118 -61 -285
-78 -370 -37 -186 -38 -191 -49 -170 -5 8 -11 36 -14 62 -4 26 -23 123 -42
215 -20 92 -47 222 -62 288 -14 66 -29 137 -34 158 l-10 37 -121 0 c-110 0
-120 -2 -115 -17z"/>
<path d="M5644 2427 c-3 -8 -4 -52 -2 -98 l3 -84 128 -3 127 -3 0 -669 0 -670
120 0 120 0 0 670 0 670 125 0 125 0 0 100 0 100 -370 0 c-300 0 -372 -3 -376
-13z"/>
<path d="M4407 2030 c-68 -17 -137 -71 -168 -132 -10 -20 -29 -72 -41 -115
-20 -71 -22 -99 -22 -328 0 -230 2 -256 22 -330 44 -152 101 -211 228 -235 70
-13 182 -9 247 10 90 26 167 141 187 277 5 38 10 167 9 288 0 305 -19 400 -96
486 -60 66 -102 82 -223 85 -58 2 -122 -1 -143 -6z m148 -160 c17 -6 33 -26
46 -56 20 -43 21 -67 21 -354 1 -306 1 -308 -23 -356 -28 -56 -62 -73 -106
-52 -39 19 -53 55 -65 171 -13 123 -4 514 13 575 11 41 48 82 75 82 7 0 24 -4
39 -10z"/>
<path d="M8224 2031 c-60 -15 -119 -56 -152 -105 -64 -96 -82 -216 -77 -506 3
-233 14 -302 58 -391 54 -109 160 -158 312 -146 189 15 285 112 285 289 l0 58
-67 0 c-38 0 -84 3 -104 6 l-36 6 -7 -63 c-13 -110 -48 -143 -135 -126 -44 9
-62 66 -64 207 l-2 115 213 3 212 2 0 153 c-1 303 -38 419 -154 479 -33 17
-63 22 -146 24 -58 2 -119 0 -136 -5z m161 -173 c33 -30 47 -105 43 -235 l-3
-98 -95 0 -95 0 2 128 c1 71 7 144 13 163 21 64 86 84 135 42z"/>
<path d="M5012 1548 c4 -527 7 -549 72 -614 88 -88 280 -62 351 48 17 26 35
47 41 47 7 1 15 -26 19 -64 l7 -65 99 0 99 0 0 560 0 560 -125 0 -125 0 0
-448 c0 -491 2 -475 -60 -507 -58 -30 -104 -12 -120 46 -6 20 -10 221 -10 471
l0 438 -126 0 -125 0 3 -472z"/>
<path d="M6322 1538 c4 -534 4 -533 71 -605 48 -51 151 -67 239 -37 47 16 123
82 134 116 11 36 29 11 37 -50 l9 -62 96 0 97 0 0 560 0 560 -122 0 -123 0 0
-451 0 -451 -31 -29 c-58 -54 -121 -51 -145 6 -11 28 -14 116 -14 480 l0 445
-126 0 -125 0 3 -482z"/>
</g>
</svg>
